<?xml version="1.0" encoding="utf-8"?>
<!-- Generator: Adobe Illustrator 26.3.1, SVG Export Plug-In . SVG Version: 6.00 Build 0)  -->
<svg version="1.1" id="레이어_1" xmlns="http://www.w3.org/2000/svg" xmlns:xlink="http://www.w3.org/1999/xlink" x="0px"
	 y="0px" viewBox="0 0 32 32" style="enable-background:new 0 0 32 32;" xml:space="preserve">
<style type="text/css">
	.st0{fill:none;}
	.st1{fill:none;stroke:#ADB2BB;stroke-width:1.5;stroke-linecap:round;stroke-linejoin:round;}
</style>
<g id="Page-2">
	<g id="icon_gray_6">
		<rect id="Rectangle" y="0" class="st0" width="32" height="32"/>
		<g id="Group-11" transform="translate(5.000000, 4.000000)">
			<path id="Stroke-1" class="st1" d="M3.8,14.5c0,0-6.2-7.2-2.7-12.1c0,0,1.9-2.2,5.4-2.2c0,0,4.1,0.4,5.3,4c0,0,1.3-4.8,6.2-4
				c0,0,4.8,0.2,5,5.7c0,0,0.2,3.1-1.6,5.8"/>
			<polyline id="Stroke-3" class="st1" points="0,18.7 11.5,7.7 23,18.7 			"/>
			<line id="Stroke-5" class="st1" x1="17.3" y1="7.7" x2="17.3" y2="12.5"/>
			<line id="Stroke-7" class="st1" x1="20.1" y1="17" x2="20.1" y2="23.4"/>
			<line id="Stroke-9" class="st1" x1="3.1" y1="17" x2="3.1" y2="23.4"/>
		</g>
	</g>
</g>
</svg>
