<?xml version="1.0" encoding="utf-8"?>
<!-- Generator: Adobe Illustrator 26.3.1, SVG Export Plug-In . SVG Version: 6.00 Build 0)  -->
<svg version="1.1" id="레이어_1" xmlns="http://www.w3.org/2000/svg" xmlns:xlink="http://www.w3.org/1999/xlink" x="0px"
	 y="0px" viewBox="0 0 32 32" style="enable-background:new 0 0 32 32;" xml:space="preserve">
<style type="text/css">
	.st0{fill:none;}
	.st1{fill:none;stroke:#D57F4D;stroke-width:1.5;stroke-linecap:round;stroke-linejoin:round;}
</style>
<g id="Page-2">
	<g id="icon_orange_2">
		<rect id="Rectangle" y="0" class="st0" width="32" height="32"/>
		<g id="Group-13" transform="translate(4.000000, 6.000000)">
			<path id="Stroke-1" class="st1" d="M22.5,17.6H1.5c-0.8,0-1.5-0.7-1.5-1.5v-4.6C0,10.7,0.7,10,1.5,10h21.1c0.8,0,1.5,0.7,1.5,1.5
				v4.6C24,16.9,23.3,17.6,22.5,17.6z"/>
			<path id="Stroke-3" class="st1" d="M21,9.8H3V1.5C3,0.7,3.6,0,4.4,0h15.2C20.4,0,21,0.7,21,1.5V9.8z"/>
			<path id="Stroke-5" class="st1" d="M18,9.8H6V7.4C6,6.6,6.6,6,7.3,6h9.5C17.4,6,18,6.6,18,7.4V9.8z"/>
			<line id="Stroke-7" class="st1" x1="3.1" y1="20.6" x2="3.1" y2="18"/>
			<line id="Stroke-9" class="st1" x1="12" y1="10" x2="12" y2="6"/>
			<line id="Stroke-11" class="st1" x1="21.1" y1="20.6" x2="21.1" y2="18"/>
		</g>
	</g>
</g>
</svg>
