<?xml version="1.0" encoding="utf-8"?>
<!-- Generator: Adobe Illustrator 26.3.1, SVG Export Plug-In . SVG Version: 6.00 Build 0)  -->
<svg version="1.1" id="레이어_1" xmlns="http://www.w3.org/2000/svg" xmlns:xlink="http://www.w3.org/1999/xlink" x="0px"
	 y="0px" viewBox="0 0 32 32" style="enable-background:new 0 0 32 32;" xml:space="preserve">
<style type="text/css">
	.st0{fill:none;}
	.st1{fill:none;stroke:#D57F4D;stroke-width:1.5;stroke-linejoin:round;}
	.st2{fill-rule:evenodd;clip-rule:evenodd;fill:#D57F4D;}
</style>
<g id="Page-2">
	<g id="icon_orange_4">
		<rect id="Rectangle" y="0" class="st0" width="32" height="32"/>
		<g id="Group-3" transform="translate(5.000000, 5.000000)">
			<path id="Path" class="st1" d="M22,20.9l-1-5.2c0.2-0.4,0.3-0.8,0.5-1.2h0C23.7,7.6,18.8,0.4,11.5,0c0,0,0,0,0,0
				C5.2-0.3,0,4.8,0,11c0,6.1,4.9,11,11,11c1.6,0,3.2-0.4,4.7-1.1c5.7,1.1,5.3,1.1,5.4,1.1C21.7,22,22.1,21.5,22,20.9"/>
			<path id="Path_00000021098853278967139330000012335980948953124770_" class="st2" d="M15.4,12.1c-0.6,0-1.1-0.5-1.1-1.1
				c0-0.6,0.5-1.1,1.1-1.1c0.6,0,1.1,0.5,1.1,1.1C16.5,11.6,16,12.1,15.4,12.1"/>
			<path id="Path_00000029027078247552469290000017709683017027752859_" class="st2" d="M11,12.1c-0.6,0-1.1-0.5-1.1-1.1
				c0-0.6,0.5-1.1,1.1-1.1c0.6,0,1.1,0.5,1.1,1.1C12.1,11.6,11.6,12.1,11,12.1"/>
			<path id="Path_00000119082113025038445470000010258684971465413538_" class="st2" d="M6.6,12.1c-0.6,0-1.1-0.5-1.1-1.1
				c0-0.6,0.5-1.1,1.1-1.1s1.1,0.5,1.1,1.1C7.7,11.6,7.2,12.1,6.6,12.1"/>
		</g>
	</g>
</g>
</svg>
