<?xml version="1.0" encoding="utf-8"?>
<!-- Generator: Adobe Illustrator 26.3.1, SVG Export Plug-In . SVG Version: 6.00 Build 0)  -->
<svg version="1.1" id="레이어_1" xmlns="http://www.w3.org/2000/svg" xmlns:xlink="http://www.w3.org/1999/xlink" x="0px"
	 y="0px" viewBox="0 0 32 32" style="enable-background:new 0 0 32 32;" xml:space="preserve">
<style type="text/css">
	.st0{fill:none;}
	.st1{fill:none;stroke:#D57F4D;stroke-width:1.5;stroke-linecap:round;stroke-linejoin:round;}
</style>
<g id="Page-2">
	<g id="icon_orange_8">
		<rect id="Rectangle" y="0" class="st0" width="32" height="32"/>
		<g id="Group-11" transform="translate(4.000000, 5.000000)">
			<path id="Stroke-1" class="st1" d="M0,18.2h24c0,0-1.4,2.6-3.2,2.7h-17C3.7,21,1.8,21.3,0,18.2z"/>
			<path id="Stroke-3" class="st1" d="M3.2,18.2L4.6,7.9c0,0,0.7-2.5,2.7-2.4h9.4c0,0,2.1,0.6,2.3,2.1l1.6,10.7H3.2z"/>
			<path id="Stroke-5" class="st1" d="M4.9,8h6.6c0,0,2.2-0.2,2.6,2.1c0,0-0.4,2.7,1.2,3c0,0,1.4,0.3,1.5-2V9.8c0,0,0.2-1.9,2.2-1.8
				"/>
			<path id="Stroke-7" class="st1" d="M13.7,3.8c0,1-0.8,1.8-1.8,1.8c-1,0-1.8-0.8-1.8-1.8s0.8-1.8,1.8-1.8
				C12.9,1.9,13.7,2.7,13.7,3.8z"/>
			<path id="Stroke-9" class="st1" d="M11.7,2.2c0,0,0.4-2.4,2.3-2.2"/>
		</g>
	</g>
</g>
</svg>
