<?xml version="1.0" encoding="utf-8"?>
<!-- Generator: Adobe Illustrator 26.3.1, SVG Export Plug-In . SVG Version: 6.00 Build 0)  -->
<svg version="1.1" id="레이어_1" xmlns="http://www.w3.org/2000/svg" xmlns:xlink="http://www.w3.org/1999/xlink" x="0px"
	 y="0px" viewBox="0 0 32 32" style="enable-background:new 0 0 32 32;" xml:space="preserve">
<style type="text/css">
	.st0{fill:none;}
	.st1{fill:none;stroke:#D57F4D;stroke-width:1.5;stroke-linecap:round;stroke-linejoin:round;}
</style>
<g id="Page-2">
	<g id="icon_orange_7">
		<rect id="Rectangle" y="0" class="st0" width="32" height="32"/>
		<g id="Group-11" transform="translate(4.000000, 5.000000)">
			<path id="Stroke-1" class="st1" d="M1.7,9.6c0,0,0.3-10,9.9-9.6l1.4,0c0,0,9.6,0.5,9.3,9.6H1.7z"/>
			<path id="Stroke-3" class="st1" d="M22.4,16.4L22.4,16.4H1.8h0c0,0,0,0,0,0.1c-0.2,3.2,2,4.6,3.7,5.1C6,21.9,6.5,22,7.1,22l0.2,0
				c0.1,0,0.1,0,0.1,0l4.7,0l4.7,0c0,0,0,0,0.1,0l0.2,0c0.6,0,1.1-0.1,1.6-0.4C20.4,21.1,22.6,19.7,22.4,16.4
				C22.4,16.5,22.4,16.4,22.4,16.4z"/>
			<polyline id="Stroke-5" class="st1" points="22.4,13.5 22.4,16.4 1.8,16.4 1.8,13.5 			"/>
			<path id="Stroke-7" class="st1" d="M9.9,13.5h-8c-1.1,0-1.9-0.9-1.9-1.9l0,0c0-1.1,0.9-1.9,1.9-1.9h20.2c1.1,0,1.9,0.9,1.9,1.9
				l0,0c0,1.1-0.9,1.9-1.9,1.9h-8.2"/>
			<polyline id="Stroke-9" class="st1" points="3,9.9 12,14.6 19.8,9.9 			"/>
		</g>
	</g>
</g>
</svg>
