<?xml version="1.0" encoding="utf-8"?>
<!-- Generator: Adobe Illustrator 26.3.1, SVG Export Plug-In . SVG Version: 6.00 Build 0)  -->
<svg version="1.1" id="레이어_1" xmlns="http://www.w3.org/2000/svg" xmlns:xlink="http://www.w3.org/1999/xlink" x="0px"
	 y="0px" viewBox="0 0 32 32" style="enable-background:new 0 0 32 32;" xml:space="preserve">
<style type="text/css">
	.st0{fill:none;}
	.st1{fill:none;stroke:#ADB2BB;stroke-width:1.5;stroke-linecap:round;stroke-linejoin:round;}
	.st2{fill:#ADB2BB;}
</style>
<g id="Page-2">
	<g id="icon_gray_1">
		<rect id="Rectangle" y="0" class="st0" width="32" height="32"/>
		<g id="Group-8" transform="translate(4.000000, 4.000000)">
			<circle id="Oval" class="st1" cx="12" cy="12" r="12"/>
			<g id="ALL" transform="translate(4.983000, 8.418000)">
				<path id="Shape" class="st2" d="M2.7,0c0.2,0,0.3,0,0.4,0.1c0.1,0.1,0.2,0.2,0.3,0.4l2,5c0.1,0.2,0.1,0.3,0,0.4
					C5.2,6.1,5.1,6.2,5,6.2s-0.3,0.1-0.4,0c-0.1,0-0.2-0.1-0.3-0.3L3.7,4.5H1.6L1,5.9C1,6.1,0.9,6.2,0.8,6.2s-0.3,0-0.4,0
					S0.1,6.1,0,6C0,5.9,0,5.7,0,5.6l2-5.1c0.1-0.2,0.2-0.3,0.3-0.4S2.5,0,2.7,0z M2.6,1.4c0,0.2-0.1,0.3-0.1,0.5S2.4,2.2,2.3,2.3
					L1.9,3.6h1.5L3,2.3C2.9,2.1,2.8,2,2.8,1.8S2.7,1.5,2.6,1.4z"/>
				<path id="Path" class="st2" d="M6.6,0C6.7,0,6.9,0,7,0.1c0.1,0.1,0.2,0.2,0.2,0.4v4.8h2.5c0.1,0,0.2,0,0.3,0.1
					C10,5.5,10,5.6,10,5.7c0,0.1,0,0.2-0.1,0.3C9.9,6.2,9.8,6.2,9.7,6.2H6.8c-0.3,0-0.5-0.1-0.6-0.2C6.1,6,6,5.8,6,5.5v-5
					c0-0.2,0.1-0.3,0.2-0.4S6.4,0,6.6,0z"/>
				<path id="Path_00000091726401256893983190000017290612950910003332_" class="st2" d="M11.1,0c0.2,0,0.3,0,0.4,0.1
					s0.2,0.2,0.2,0.4v4.8h2.5c0.1,0,0.2,0,0.3,0.1s0.1,0.2,0.1,0.3c0,0.1,0,0.2-0.1,0.3c-0.1,0.1-0.2,0.1-0.3,0.1h-2.9
					c-0.3,0-0.5-0.1-0.6-0.2s-0.2-0.3-0.2-0.6v-5c0-0.2,0.1-0.3,0.2-0.4C10.8,0,10.9,0,11.1,0z"/>
			</g>
		</g>
	</g>
</g>
</svg>
