<?xml version="1.0" encoding="utf-8"?>
<!-- Generator: Adobe Illustrator 26.3.1, SVG Export Plug-In . SVG Version: 6.00 Build 0)  -->
<svg version="1.1" id="레이어_1" xmlns="http://www.w3.org/2000/svg" xmlns:xlink="http://www.w3.org/1999/xlink" x="0px"
	 y="0px" viewBox="0 0 32 32" style="enable-background:new 0 0 32 32;" xml:space="preserve">
<style type="text/css">
	.st0{fill:none;}
	.st1{fill:none;stroke:#ADB2BB;stroke-width:1.5;stroke-linejoin:round;}
	.st2{fill:none;stroke:#ADB2BB;stroke-width:1.5;stroke-linecap:round;stroke-linejoin:round;}
</style>
<g id="Page-2">
	<g id="icon_gray_3">
		<rect id="Rectangle" y="0" class="st0" width="32" height="32"/>
		<g id="Group-19" transform="translate(3.805731, 4.000000)">
			<path id="Stroke-1" class="st1" d="M12.7,6.4c1.9,0,3.6,0.7,4.9,1.9c1.3,1.2,2,2.9,2,4.7c0,0.3,0,0.5,0,0.7
				c0,1.7-0.3,2.1-0.8,2.5c-0.4,0.3-1.2,0.4-2.7,0.4c-0.6,0-1.1,0-1.6,0c-0.5,0-1.1,0-1.6,0c-1,0-1.8,0-2.5,0c-0.4,0-0.7,0-0.9,0
				c-1.8,0-2.6-0.2-3.1-0.5c-0.6-0.4-0.7-1-0.7-2.5c0-0.2,0-0.4,0-0.6c0-1.8,0.8-3.5,2-4.7C9,7.1,10.7,6.4,12.7,6.4z"/>
			<line id="Stroke-3" class="st2" x1="1.2" y1="16.7" x2="24.2" y2="16.7"/>
			<line id="Stroke-5" class="st2" x1="4.9" y1="20.3" x2="20.2" y2="20.3"/>
			<line id="Stroke-7" class="st2" x1="7.8" y1="23.9" x2="17.3" y2="23.9"/>
			<line id="Stroke-9" class="st2" x1="0" y1="11.9" x2="3" y2="11.9"/>
			<line id="Stroke-11" class="st2" x1="4" y1="4.6" x2="5.9" y2="6.8"/>
			<line id="Stroke-13" class="st2" x1="12.5" y1="3.5" x2="12.5" y2="0"/>
			<line id="Stroke-15" class="st2" x1="19.7" y1="6.8" x2="21.8" y2="4.6"/>
			<line id="Stroke-17" class="st2" x1="22.8" y1="12.2" x2="25.8" y2="12.2"/>
		</g>
	</g>
</g>
</svg>
