<?xml version="1.0" encoding="utf-8"?>
<!-- Generator: Adobe Illustrator 26.3.1, SVG Export Plug-In . SVG Version: 6.00 Build 0)  -->
<svg version="1.1" id="레이어_1" xmlns="http://www.w3.org/2000/svg" xmlns:xlink="http://www.w3.org/1999/xlink" x="0px"
	 y="0px" viewBox="0 0 32 32" style="enable-background:new 0 0 32 32;" xml:space="preserve">
<style type="text/css">
	.st0{fill:none;}
	.st1{fill-rule:evenodd;clip-rule:evenodd;fill:#ADB2BB;}
</style>
<g id="Page-2">
	<g id="icon_gray_9">
		<rect id="Rectangle" y="0" class="st0" width="32" height="32"/>
		<g id="Group-4" transform="translate(5.999976, 4.000000)">
			<path id="Fill-1" class="st1" d="M12.7,2.8h5.8V1.4h-5.8V2.8z M1.5,2.8h5.8V1.4H1.5V2.8z M11.2,1.4H8.8v4.4c0,0,0.1,0,0.1,0
				c0.2-0.1,0.4-0.3,0.7-0.4c0.4-0.3,0.6-0.3,1,0c0.2,0.2,0.5,0.3,0.7,0.5V1.4z M7.3,4.2H2.7c-0.4,6.1-0.8,12.2-1.2,18.3h17
				c-0.4-6.1-0.8-12.2-1.2-18.3h-4.6c0,0.1,0,0.2,0,0.3c0,0.9,0,1.7,0,2.6c0,0.3-0.1,0.6-0.4,0.7c-0.3,0.2-0.5,0.1-0.8-0.1
				c-0.4-0.3-0.9-0.6-1.3-0.9c-0.1-0.1-0.2-0.1-0.4,0C9.4,7.1,9,7.4,8.5,7.7C8.3,7.8,8.1,7.9,7.9,7.8c-0.4,0-0.6-0.3-0.6-0.7
				C7.3,6.2,7.3,5.2,7.3,4.2L7.3,4.2z M1.2,4.2c-0.2,0-0.3,0-0.5,0C0.3,4.2,0,3.9,0,3.5c0-1,0-1.9,0-2.9C0,0.3,0.3,0,0.7,0
				c0.1,0,0.1,0,0.2,0C7,0,13,0,19.1,0C19.7,0,20,0.3,20,0.9c0,0.9,0,1.7,0,2.6c0,0.5-0.3,0.8-0.8,0.8c-0.1,0-0.3,0-0.4,0
				c0,0.6,0.1,1.2,0.1,1.7c0.1,1.2,0.1,2.3,0.2,3.5c0.1,1.4,0.2,2.9,0.3,4.3c0.1,1.1,0.1,2.2,0.2,3.3c0.1,1.4,0.2,2.9,0.3,4.3
				c0,0.6,0.1,1.3,0.1,1.9c0,0.5-0.3,0.8-0.8,0.8c-6.1,0-12.2,0-18.3,0c-0.5,0-0.8-0.3-0.8-0.8c0.1-1.1,0.1-2.3,0.2-3.4
				c0.1-1.2,0.1-2.3,0.2-3.5c0.1-1.4,0.2-2.9,0.3-4.3C0.8,10.9,0.9,9.8,1,8.7C1,7.3,1.1,5.8,1.2,4.4C1.2,4.3,1.2,4.3,1.2,4.2
				L1.2,4.2z"/>
			<path id="Fill-3" class="st1" d="M5.7,18.1c0.1,0.3,0,0.6,0.1,0.8c0.2,0.4,0.6,0.6,1,0.6c2.1,0,4.2,0,6.3,0c0.1,0,0.1,0,0.2,0
				c0.7-0.1,1.1-0.7,0.9-1.4H5.7z M10,16.7c1.5,0,3,0,4.5,0c0.1,0,0.2,0,0.3,0c0.4,0,0.7-0.4,0.6-0.8c-0.1-0.4-0.4-0.6-0.8-0.6
				c-3.1,0-6.1,0-9.2,0c-0.1,0-0.2,0-0.3,0c-0.5,0.1-0.7,0.6-0.4,1c0.2,0.3,0.4,0.3,0.7,0.3C6.9,16.7,8.5,16.7,10,16.7L10,16.7z
				 M6.9,11.4c-0.7,0.3-1.3,1.6-1.1,2.4h8.5c0.1-0.9-0.5-2.1-1.2-2.4c0,0.1,0,0.3,0,0.4c0,0.5-0.3,0.8-0.7,0.8
				c-0.4,0-0.7-0.3-0.7-0.8c0-0.3,0-0.6,0-1h-1c0,0.3,0,0.6,0,1c0,0.5-0.3,0.8-0.7,0.8c-0.4,0-0.7-0.3-0.7-0.8c0-0.3,0-0.6,0-1h-1
				c0,0.4,0,0.7,0,1c0,0.4-0.3,0.7-0.7,0.7c-0.4,0-0.7-0.3-0.7-0.7C6.9,11.7,6.9,11.6,6.9,11.4L6.9,11.4z M10,20.9c-1,0-2.1,0-3.1,0
				c-1.5,0-2.6-1-2.6-2.5c0-0.4-0.1-0.6-0.4-0.9c-1.1-0.9-1-2.5,0.2-3.3c0.2-0.1,0.2-0.3,0.2-0.5c0-1.2,0.4-2.3,1.3-3.2
				c0.8-0.8,1.8-1.2,2.9-1.2c1,0,1.9,0,2.9,0c2.3-0.1,4.4,1.8,4.4,4.2c0,0.1,0,0.1,0,0.2c0,0.2,0,0.3,0.2,0.4c1.3,0.9,1.3,2.7,0,3.5
				c-0.1,0.1-0.2,0.2-0.2,0.3c0,0.5,0,0.9-0.2,1.4c-0.5,1-1.3,1.5-2.4,1.5c0,0,0,0,0,0C12.1,20.9,11,20.9,10,20.9L10,20.9z"/>
		</g>
	</g>
</g>
</svg>
