<?xml version="1.0" encoding="utf-8"?>
<!-- Generator: Adobe Illustrator 26.3.1, SVG Export Plug-In . SVG Version: 6.00 Build 0)  -->
<svg version="1.1" id="레이어_1" xmlns="http://www.w3.org/2000/svg" xmlns:xlink="http://www.w3.org/1999/xlink" x="0px"
	 y="0px" viewBox="0 0 16 16" style="enable-background:new 0 0 16 16;" xml:space="preserve">
<style type="text/css">
	.st0{fill:#E5E8EC;}
	.st1{fill:#FFD127;}
</style>
<path class="st0" d="M13,5.6l-1.8-0.3C10.6,5.3,10.2,5,10,4.5L9.2,2.9C9,2.6,8.8,2.4,8.6,2.3C8.4,2.2,8.2,2.1,8,2.1v10.5
	c0.2,0,0.5,0.1,0.7,0.2l1.7,0.9c0.3,0.1,0.5,0.2,0.8,0.1c0.7-0.1,1.2-0.8,1.1-1.5l-0.3-1.8c-0.1-0.5,0.1-1,0.4-1.3l1.3-1.3
	c0.2-0.2,0.3-0.5,0.4-0.8C14.2,6.4,13.7,5.7,13,5.6z"/>
<path class="st1" d="M6.8,2.9L6,4.5C5.8,5,5.4,5.3,4.9,5.4L3,5.6C2.7,5.7,2.5,5.8,2.3,6c-0.5,0.5-0.5,1.3,0,1.9l1.3,1.3
	C4,9.5,4.1,10,4.1,10.5l-0.3,1.8c0,0.3,0,0.6,0.1,0.8C4.2,13.8,5,14,5.6,13.7l1.7-0.9c0.2-0.1,0.5-0.2,0.7-0.2V2.1
	C7.5,2.1,7.1,2.4,6.8,2.9z"/>
</svg>
