<?xml version="1.0" encoding="utf-8"?>
<!-- Generator: Adobe Illustrator 26.3.1, SVG Export Plug-In . SVG Version: 6.00 Build 0)  -->
<svg version="1.1" id="레이어_1" xmlns="http://www.w3.org/2000/svg" xmlns:xlink="http://www.w3.org/1999/xlink" x="0px"
	 y="0px" viewBox="0 0 14 13" style="enable-background:new 0 0 14 13;" xml:space="preserve">
<style type="text/css">
	.st0{fill-rule:evenodd;clip-rule:evenodd;fill:#FFD127;}
</style>
<g id="Page-2">
	<g id="_x30_1로스팅랜드마크_x5F_01메인_x5F_01PC" transform="translate(-723.000000, -1482.000000)">
		<g id="list" transform="translate(650.000000, 1175.000000)">
			<g id="Group-6" transform="translate(24.000000, 306.000000)">
				<path id="star_on" class="st0" d="M55.3,12.4l-1.7,0.9c-0.6,0.3-1.4,0.1-1.8-0.6c-0.1-0.3-0.2-0.5-0.1-0.8l0.3-1.8
					c0.1-0.5-0.1-1-0.4-1.3l-1.3-1.3c-0.5-0.5-0.5-1.3,0-1.9c0.2-0.2,0.5-0.3,0.8-0.4l1.8-0.3c0.5-0.1,0.9-0.4,1.1-0.8l0.8-1.7
					c0.3-0.6,1.1-0.9,1.8-0.6c0.3,0.1,0.5,0.3,0.6,0.6L58,4.1c0.2,0.4,0.6,0.7,1.1,0.8L61,5.1c0.7,0.1,1.2,0.8,1.1,1.5
					c0,0.3-0.2,0.5-0.4,0.8l-1.3,1.3C60,9,59.9,9.5,59.9,10l0.3,1.8c0.1,0.7-0.4,1.4-1.1,1.5c-0.3,0-0.6,0-0.8-0.1l-1.7-0.9
					C56.3,12.1,55.7,12.1,55.3,12.4z"/>
			</g>
		</g>
	</g>
</g>
</svg>
